<svg width="38" height="50" viewBox="0 0 38 50" fill="none" xmlns="http://www.w3.org/2000/svg">
    <g clip-path="url(#clip0)">
        <path fill-rule="evenodd" clip-rule="evenodd" d="M31.6358 21.875C29.3264 21.875 27.2701 23.1563 26.1628 25.0625V25C22.8411 24.9375 18.9815 23.875 16.2608 21.8125C13.8881 20 11.5154 16.7813 10.2816 14.1875C11.3038 13.3807 12.0466 12.2798 12.407 11.0373C12.7674 9.79488 12.7275 8.47245 12.293 7.25336C11.8584 6.03427 11.0507 4.97892 9.98171 4.23361C8.91277 3.4883 7.63556 3.08995 6.32716 3.09378C2.81559 3.09378 0 5.90628 0 9.37503C0.00666484 10.4657 0.302178 11.5357 0.857169 12.4787C1.41216 13.4216 2.20731 14.2047 3.16358 14.75V35.25C1.29707 36.3438 0 38.3438 0 40.625C0 44.0938 2.81559 46.875 6.32716 46.875C7.71708 46.8787 9.06927 46.4285 10.1734 45.5946C11.2776 44.7606 12.0718 43.5897 12.4327 42.2638C12.7935 40.9378 12.7007 39.5313 12.1686 38.2629C11.6366 36.9945 10.6952 35.9353 9.49074 35.25V23.9688C11.6103 26.1563 14.0463 27.9375 16.767 29.25C19.4877 30.5625 23.189 31.2188 26.1628 31.25V31.1875C27.3017 33.0938 29.3264 34.375 31.6358 34.375C35.1474 34.375 37.963 31.5938 37.963 28.125C37.963 24.6563 35.1474 21.875 31.6358 21.875ZM10.1235 40.625C10.1235 42.6875 8.38349 44.375 6.32716 44.375C4.27083 44.375 2.53086 42.6563 2.53086 40.625C2.53086 38.5938 4.27083 36.875 6.32716 36.875C8.38349 36.875 10.1235 38.5938 10.1235 40.625ZM6.32716 13.125C4.2392 13.125 2.53086 11.4063 2.53086 9.37503C2.53086 7.34378 4.27083 5.62503 6.32716 5.62503C8.38349 5.62503 10.1235 7.34378 10.1235 9.37503C10.1235 11.4063 8.38349 13.125 6.32716 13.125ZM31.6358 31.875C29.5478 31.875 27.8395 30.1563 27.8395 28.125C27.8395 26.0938 29.5795 24.375 31.6358 24.375C33.6921 24.375 35.4321 26.0938 35.4321 28.125C35.4321 30.1563 33.6921 31.875 31.6358 31.875Z" fill="#1B344B"/>
    </g>
    <defs>
        <clipPath id="clip0">
            <rect width="37.963" height="50" fill="white"/>
        </clipPath>
    </defs>
</svg>
