<svg width="48" height="48" viewBox="0 0 48 48" fill="none" xmlns="http://www.w3.org/2000/svg">
<path fill-rule="evenodd" clip-rule="evenodd" d="M10.5977 9.91016V39.2173H7.59766V9.91016H10.5977Z" fill="#1B344B"/>
<path fill-rule="evenodd" clip-rule="evenodd" d="M33.6885 32.1883C20.6299 32.1883 9.81153 22.5955 7.89941 10.0699L10.8651 9.61719C12.5568 20.6993 22.1338 29.1883 33.6885 29.1883V32.1883Z" fill="#1B344B"/>
<path fill-rule="evenodd" clip-rule="evenodd" d="M9.09776 3.5C7.66306 3.5 6.5 4.66306 6.5 6.09776C6.5 7.53246 7.66306 8.69551 9.09776 8.69551C10.5325 8.69551 11.6955 7.53246 11.6955 6.09776C11.6955 4.66306 10.5325 3.5 9.09776 3.5ZM3.5 6.09776C3.5 3.0062 6.0062 0.5 9.09776 0.5C12.1893 0.5 14.6955 3.0062 14.6955 6.09776C14.6955 9.18931 12.1893 11.6955 9.09776 11.6955C6.0062 11.6955 3.5 9.18931 3.5 6.09776Z" fill="#1B344B"/>
<path fill-rule="evenodd" clip-rule="evenodd" d="M38.9571 28.0859C37.5224 28.0859 36.3594 29.249 36.3594 30.6837C36.3594 32.1184 37.5224 33.2815 38.9571 33.2815C40.3918 33.2815 41.5549 32.1184 41.5549 30.6837C41.5549 29.249 40.3918 28.0859 38.9571 28.0859ZM33.3594 30.6837C33.3594 27.5921 35.8656 25.0859 38.9571 25.0859C42.0487 25.0859 44.5549 27.5921 44.5549 30.6837C44.5549 33.7753 42.0487 36.2815 38.9571 36.2815C35.8656 36.2815 33.3594 33.7753 33.3594 30.6837Z" fill="#1B344B"/>
<path fill-rule="evenodd" clip-rule="evenodd" d="M9.09776 39.7969C7.66305 39.7969 6.5 40.9599 6.5 42.3946C6.5 43.8293 7.66305 44.9924 9.09776 44.9924C10.5325 44.9924 11.6955 43.8293 11.6955 42.3946C11.6955 40.9599 10.5325 39.7969 9.09776 39.7969ZM3.5 42.3946C3.5 39.3031 6.0062 36.7969 9.09776 36.7969C12.1893 36.7969 14.6955 39.3031 14.6955 42.3946C14.6955 45.4862 12.1893 47.9924 9.09776 47.9924C6.0062 47.9924 3.5 45.4862 3.5 42.3946Z" fill="#1B344B"/>
</svg>
